<?xml version="1.0" standalone="no"?>
<svg xmlns:xlink="http://www.w3.org/1999/xlink" id="wave" style="transform:rotate(0deg); transition: 0.3s" viewBox="0 0 1440 490" version="1.1" xmlns="http://www.w3.org/2000/svg"><defs><linearGradient id="sw-gradient-0" x1="0" x2="0" y1="1" y2="0"><stop stop-color="rgba(255, 255, 255, 1)" offset="0%"/><stop stop-color="rgba(0, 0, 0, 1)" offset="100%"/></linearGradient></defs><path style="transform:translate(0, 0px); opacity:1" fill="url(#sw-gradient-0)" d="M0,98L34.3,81.7C68.6,65,137,33,206,57.2C274.3,82,343,163,411,204.2C480,245,549,245,617,212.3C685.7,180,754,114,823,130.7C891.4,147,960,245,1029,310.3C1097.1,376,1166,408,1234,351.2C1302.9,294,1371,147,1440,114.3C1508.6,82,1577,163,1646,187.8C1714.3,212,1783,180,1851,147C1920,114,1989,82,2057,114.3C2125.7,147,2194,245,2263,310.3C2331.4,376,2400,408,2469,400.2C2537.1,392,2606,343,2674,277.7C2742.9,212,2811,131,2880,155.2C2948.6,180,3017,310,3086,310.3C3154.3,310,3223,180,3291,106.2C3360,33,3429,16,3497,8.2C3565.7,0,3634,0,3703,57.2C3771.4,114,3840,229,3909,236.8C3977.1,245,4046,147,4114,122.5C4182.9,98,4251,147,4320,204.2C4388.6,261,4457,327,4526,318.5C4594.3,310,4663,229,4731,187.8C4800,147,4869,147,4903,147L4937.1,147L4937.1,490L4902.9,490C4868.6,490,4800,490,4731,490C4662.9,490,4594,490,4526,490C4457.1,490,4389,490,4320,490C4251.4,490,4183,490,4114,490C4045.7,490,3977,490,3909,490C3840,490,3771,490,3703,490C3634.3,490,3566,490,3497,490C3428.6,490,3360,490,3291,490C3222.9,490,3154,490,3086,490C3017.1,490,2949,490,2880,490C2811.4,490,2743,490,2674,490C2605.7,490,2537,490,2469,490C2400,490,2331,490,2263,490C2194.3,490,2126,490,2057,490C1988.6,490,1920,490,1851,490C1782.9,490,1714,490,1646,490C1577.1,490,1509,490,1440,490C1371.4,490,1303,490,1234,490C1165.7,490,1097,490,1029,490C960,490,891,490,823,490C754.3,490,686,490,617,490C548.6,490,480,490,411,490C342.9,490,274,490,206,490C137.1,490,69,490,34,490L0,490Z"/></svg>